<?xml version="1.0" encoding="UTF-8" standalone="no"?>
<!DOCTYPE svg PUBLIC "-//W3C//DTD SVG 1.1//EN"
 "http://www.w3.org/Graphics/SVG/1.1/DTD/svg11.dtd">
<!-- Generated by graphviz version 2.43.0 (0)
 -->
<!-- Title: %3 Pages: 1 -->
<svg width="3226pt" height="188pt"
 viewBox="0.00 0.00 3225.53 188.00" xmlns="http://www.w3.org/2000/svg" xmlns:xlink="http://www.w3.org/1999/xlink">
<g id="graph0" class="graph" transform="scale(1 1) rotate(0) translate(4 184)">
<title>%3</title>
<polygon fill="white" stroke="transparent" points="-4,4 -4,-184 3221.53,-184 3221.53,4 -4,4"/>
<!-- latitude -->
<g id="node1" class="node">
<title>latitude</title>
<ellipse fill="white" stroke="black" cx="37.05" cy="-162" rx="37.09" ry="18"/>
<text text-anchor="middle" x="37.05" y="-158.3" font-family="Times,serif" font-size="14.00">latitude</text>
</g>
<!-- mu -->
<g id="node18" class="node">
<title>mu</title>
<ellipse fill="white" stroke="black" stroke-dasharray="5,2" cx="1065.05" cy="-90" rx="27" ry="18"/>
<text text-anchor="middle" x="1065.05" y="-86.3" font-family="Times,serif" font-size="14.00">mu</text>
</g>
<!-- latitude&#45;&gt;mu -->
<g id="edge1" class="edge">
<title>latitude&#45;&gt;mu</title>
<path fill="none" stroke="black" d="M63.89,-149.55C70.08,-147.34 76.71,-145.31 83.05,-144 268.76,-105.59 871.61,-93.93 1027.81,-91.52"/>
<polygon fill="black" stroke="black" points="1027.91,-95.02 1037.86,-91.37 1027.81,-88.02 1027.91,-95.02"/>
</g>
<!-- longitude -->
<g id="node2" class="node">
<title>longitude</title>
<ellipse fill="white" stroke="black" cx="136.05" cy="-162" rx="44.39" ry="18"/>
<text text-anchor="middle" x="136.05" y="-158.3" font-family="Times,serif" font-size="14.00">longitude</text>
</g>
<!-- longitude&#45;&gt;mu -->
<g id="edge2" class="edge">
<title>longitude&#45;&gt;mu</title>
<path fill="none" stroke="black" d="M167.95,-149.35C174.82,-147.24 182.11,-145.3 189.05,-144 353.77,-113.1 882.3,-96.17 1027.71,-92.02"/>
<polygon fill="black" stroke="black" points="1028,-95.51 1037.9,-91.73 1027.8,-88.51 1028,-95.51"/>
</g>
<!-- housing_median_age -->
<g id="node3" class="node">
<title>housing_median_age</title>
<ellipse fill="white" stroke="black" cx="284.05" cy="-162" rx="85.59" ry="18"/>
<text text-anchor="middle" x="284.05" y="-158.3" font-family="Times,serif" font-size="14.00">housing_median_age</text>
</g>
<!-- housing_median_age&#45;&gt;mu -->
<g id="edge3" class="edge">
<title>housing_median_age&#45;&gt;mu</title>
<path fill="none" stroke="black" d="M344.72,-149.21C356.1,-147.27 367.91,-145.42 379.05,-144 625.66,-112.49 924.72,-97.18 1027.93,-92.56"/>
<polygon fill="black" stroke="black" points="1028.31,-96.05 1038.14,-92.11 1028,-89.05 1028.31,-96.05"/>
</g>
<!-- total_rooms -->
<g id="node4" class="node">
<title>total_rooms</title>
<ellipse fill="white" stroke="black" cx="441.05" cy="-162" rx="53.09" ry="18"/>
<text text-anchor="middle" x="441.05" y="-158.3" font-family="Times,serif" font-size="14.00">total_rooms</text>
</g>
<!-- total_rooms&#45;&gt;mu -->
<g id="edge4" class="edge">
<title>total_rooms&#45;&gt;mu</title>
<path fill="none" stroke="black" d="M479.5,-149.34C487.24,-147.31 495.36,-145.41 503.05,-144 698.71,-108.23 937.38,-95.86 1027.87,-92.28"/>
<polygon fill="black" stroke="black" points="1028.05,-95.77 1037.91,-91.89 1027.78,-88.78 1028.05,-95.77"/>
</g>
<!-- total_bedrooms -->
<g id="node5" class="node">
<title>total_bedrooms</title>
<ellipse fill="white" stroke="black" cx="578.05" cy="-162" rx="65.79" ry="18"/>
<text text-anchor="middle" x="578.05" y="-158.3" font-family="Times,serif" font-size="14.00">total_bedrooms</text>
</g>
<!-- total_bedrooms&#45;&gt;mu -->
<g id="edge5" class="edge">
<title>total_bedrooms&#45;&gt;mu</title>
<path fill="none" stroke="black" d="M625.52,-149.52C634.63,-147.53 644.11,-145.58 653.05,-144 790.78,-119.59 956.31,-101.74 1028.45,-94.53"/>
<polygon fill="black" stroke="black" points="1028.8,-98.01 1038.4,-93.54 1028.11,-91.05 1028.8,-98.01"/>
</g>
<!-- population -->
<g id="node6" class="node">
<title>population</title>
<ellipse fill="white" stroke="black" cx="710.05" cy="-162" rx="48.19" ry="18"/>
<text text-anchor="middle" x="710.05" y="-158.3" font-family="Times,serif" font-size="14.00">population</text>
</g>
<!-- population&#45;&gt;mu -->
<g id="edge6" class="edge">
<title>population&#45;&gt;mu</title>
<path fill="none" stroke="black" d="M745.45,-149.76C752.56,-147.7 760.01,-145.67 767.05,-144 860.47,-121.84 972.35,-104.31 1028.74,-96.09"/>
<polygon fill="black" stroke="black" points="1029.54,-99.52 1038.93,-94.62 1028.54,-92.59 1029.54,-99.52"/>
</g>
<!-- households -->
<g id="node7" class="node">
<title>households</title>
<ellipse fill="white" stroke="black" cx="826.05" cy="-162" rx="50.09" ry="18"/>
<text text-anchor="middle" x="826.05" y="-158.3" font-family="Times,serif" font-size="14.00">households</text>
</g>
<!-- households&#45;&gt;mu -->
<g id="edge7" class="edge">
<title>households&#45;&gt;mu</title>
<path fill="none" stroke="black" d="M863.65,-149.99C909.63,-136.52 986.77,-113.93 1031.05,-100.96"/>
<polygon fill="black" stroke="black" points="1032.15,-104.28 1040.76,-98.11 1030.18,-97.56 1032.15,-104.28"/>
</g>
<!-- median_income -->
<g id="node8" class="node">
<title>median_income</title>
<ellipse fill="white" stroke="black" cx="962.05" cy="-162" rx="67.69" ry="18"/>
<text text-anchor="middle" x="962.05" y="-158.3" font-family="Times,serif" font-size="14.00">median_income</text>
</g>
<!-- median_income&#45;&gt;mu -->
<g id="edge8" class="edge">
<title>median_income&#45;&gt;mu</title>
<path fill="none" stroke="black" d="M985.68,-144.94C1001.31,-134.31 1021.85,-120.36 1038.12,-109.3"/>
<polygon fill="black" stroke="black" points="1040.35,-112.01 1046.66,-103.5 1036.42,-106.22 1040.35,-112.01"/>
</g>
<!-- interaction_latitude_population -->
<g id="node9" class="node">
<title>interaction_latitude_population</title>
<ellipse fill="white" stroke="black" cx="1168.05" cy="-162" rx="120.78" ry="18"/>
<text text-anchor="middle" x="1168.05" y="-158.3" font-family="Times,serif" font-size="14.00">interaction_latitude_population</text>
</g>
<!-- interaction_latitude_population&#45;&gt;mu -->
<g id="edge9" class="edge">
<title>interaction_latitude_population&#45;&gt;mu</title>
<path fill="none" stroke="black" d="M1143.38,-144.23C1127.81,-133.65 1107.7,-119.99 1091.76,-109.16"/>
<polygon fill="black" stroke="black" points="1093.63,-106.19 1083.39,-103.46 1089.69,-111.98 1093.63,-106.19"/>
</g>
<!-- interaction_longitude_population -->
<g id="node10" class="node">
<title>interaction_longitude_population</title>
<ellipse fill="white" stroke="black" cx="1435.05" cy="-162" rx="128.08" ry="18"/>
<text text-anchor="middle" x="1435.05" y="-158.3" font-family="Times,serif" font-size="14.00">interaction_longitude_population</text>
</g>
<!-- interaction_longitude_population&#45;&gt;mu -->
<g id="edge10" class="edge">
<title>interaction_longitude_population&#45;&gt;mu</title>
<path fill="none" stroke="black" d="M1343.19,-149.4C1260.36,-138.39 1145.02,-121.57 1101.05,-108 1099.11,-107.4 1097.15,-106.72 1095.2,-105.98"/>
<polygon fill="black" stroke="black" points="1096.16,-102.59 1085.59,-101.92 1093.44,-109.04 1096.16,-102.59"/>
</g>
<!-- interaction_latitude_income -->
<g id="node11" class="node">
<title>interaction_latitude_income</title>
<ellipse fill="white" stroke="black" cx="1691.05" cy="-162" rx="109.68" ry="18"/>
<text text-anchor="middle" x="1691.05" y="-158.3" font-family="Times,serif" font-size="14.00">interaction_latitude_income</text>
</g>
<!-- interaction_latitude_income&#45;&gt;mu -->
<g id="edge11" class="edge">
<title>interaction_latitude_income&#45;&gt;mu</title>
<path fill="none" stroke="black" d="M1613.68,-149.2C1599.84,-147.3 1585.53,-145.48 1572.05,-144 1363.35,-121.14 1304,-161.72 1101.05,-108 1098.88,-107.43 1096.67,-106.72 1094.49,-105.93"/>
<polygon fill="black" stroke="black" points="1095.7,-102.65 1085.12,-102.05 1093.02,-109.11 1095.7,-102.65"/>
</g>
<!-- interaction_longitude_income -->
<g id="node12" class="node">
<title>interaction_longitude_income</title>
<ellipse fill="white" stroke="black" cx="1935.05" cy="-162" rx="116.18" ry="18"/>
<text text-anchor="middle" x="1935.05" y="-158.3" font-family="Times,serif" font-size="14.00">interaction_longitude_income</text>
</g>
<!-- interaction_longitude_income&#45;&gt;mu -->
<g id="edge12" class="edge">
<title>interaction_longitude_income&#45;&gt;mu</title>
<path fill="none" stroke="black" d="M1854.14,-148.98C1839.49,-147.09 1824.33,-145.33 1810.05,-144 1652.97,-129.36 1254.06,-146.41 1101.05,-108 1098.87,-107.45 1096.66,-106.77 1094.47,-106"/>
<polygon fill="black" stroke="black" points="1095.67,-102.71 1085.09,-102.15 1093.02,-109.18 1095.67,-102.71"/>
</g>
<!-- interaction_total_rooms_total_bedrooms -->
<g id="node13" class="node">
<title>interaction_total_rooms_total_bedrooms</title>
<ellipse fill="white" stroke="black" cx="2224.05" cy="-162" rx="154.87" ry="18"/>
<text text-anchor="middle" x="2224.05" y="-158.3" font-family="Times,serif" font-size="14.00">interaction_total_rooms_total_bedrooms</text>
</g>
<!-- interaction_total_rooms_total_bedrooms&#45;&gt;mu -->
<g id="edge13" class="edge">
<title>interaction_total_rooms_total_bedrooms&#45;&gt;mu</title>
<path fill="none" stroke="black" d="M2117.39,-148.92C2098.31,-147.05 2078.61,-145.31 2060.05,-144 1847.31,-129 1308.23,-158.56 1101.05,-108 1098.86,-107.47 1096.66,-106.8 1094.46,-106.03"/>
<polygon fill="black" stroke="black" points="1095.66,-102.74 1085.08,-102.2 1093.01,-109.22 1095.66,-102.74"/>
</g>
<!-- interaction_population_total_rooms -->
<g id="node14" class="node">
<title>interaction_population_total_rooms</title>
<ellipse fill="white" stroke="black" cx="2534.05" cy="-162" rx="137.28" ry="18"/>
<text text-anchor="middle" x="2534.05" y="-158.3" font-family="Times,serif" font-size="14.00">interaction_population_total_rooms</text>
</g>
<!-- interaction_population_total_rooms&#45;&gt;mu -->
<g id="edge14" class="edge">
<title>interaction_population_total_rooms&#45;&gt;mu</title>
<path fill="none" stroke="black" d="M2440.31,-148.85C2422.96,-146.95 2404.97,-145.22 2388.05,-144 2102.67,-123.43 1379.32,-174.5 1101.05,-108 1098.86,-107.48 1096.65,-106.81 1094.46,-106.05"/>
<polygon fill="black" stroke="black" points="1095.65,-102.76 1085.07,-102.23 1093.01,-109.25 1095.65,-102.76"/>
</g>
<!-- interaction_income_rooms -->
<g id="node15" class="node">
<title>interaction_income_rooms</title>
<ellipse fill="white" stroke="black" cx="2795.05" cy="-162" rx="105.88" ry="18"/>
<text text-anchor="middle" x="2795.05" y="-158.3" font-family="Times,serif" font-size="14.00">interaction_income_rooms</text>
</g>
<!-- interaction_income_rooms&#45;&gt;mu -->
<g id="edge15" class="edge">
<title>interaction_income_rooms&#45;&gt;mu</title>
<path fill="none" stroke="black" d="M2722.2,-148.84C2708.25,-146.91 2693.72,-145.16 2680.05,-144 2505.19,-129.14 1271.84,-148.35 1101.05,-108 1098.86,-107.48 1096.65,-106.82 1094.45,-106.07"/>
<polygon fill="black" stroke="black" points="1095.65,-102.77 1085.07,-102.25 1093.01,-109.26 1095.65,-102.77"/>
</g>
<!-- interaction_population_total_bedrooms -->
<g id="node16" class="node">
<title>interaction_population_total_bedrooms</title>
<ellipse fill="white" stroke="black" cx="3068.05" cy="-162" rx="149.47" ry="18"/>
<text text-anchor="middle" x="3068.05" y="-158.3" font-family="Times,serif" font-size="14.00">interaction_population_total_bedrooms</text>
</g>
<!-- interaction_population_total_bedrooms&#45;&gt;mu -->
<g id="edge16" class="edge">
<title>interaction_population_total_bedrooms&#45;&gt;mu</title>
<path fill="none" stroke="black" d="M2966.59,-148.76C2947.82,-146.87 2928.36,-145.16 2910.05,-144 2709.41,-131.23 1296.77,-153.94 1101.05,-108 1098.86,-107.49 1096.65,-106.83 1094.45,-106.07"/>
<polygon fill="black" stroke="black" points="1095.65,-102.78 1085.06,-102.27 1093.02,-109.27 1095.65,-102.78"/>
</g>
<!-- sigma -->
<g id="node17" class="node">
<title>sigma</title>
<ellipse fill="white" stroke="black" cx="1142.05" cy="-90" rx="32.49" ry="18"/>
<text text-anchor="middle" x="1142.05" y="-86.3" font-family="Times,serif" font-size="14.00">sigma</text>
</g>
<!-- median_house_value -->
<g id="node19" class="node">
<title>median_house_value</title>
<ellipse fill="grey" stroke="black" cx="1103.05" cy="-18" rx="85.29" ry="18"/>
<text text-anchor="middle" x="1103.05" y="-14.3" font-family="Times,serif" font-size="14.00">median_house_value</text>
</g>
<!-- sigma&#45;&gt;median_house_value -->
<g id="edge17" class="edge">
<title>sigma&#45;&gt;median_house_value</title>
<path fill="none" stroke="black" d="M1132.8,-72.41C1128.21,-64.16 1122.55,-54.01 1117.41,-44.78"/>
<polygon fill="black" stroke="black" points="1120.42,-42.99 1112.49,-35.96 1114.3,-46.4 1120.42,-42.99"/>
</g>
<!-- mu&#45;&gt;median_house_value -->
<g id="edge18" class="edge">
<title>mu&#45;&gt;median_house_value</title>
<path fill="none" stroke="black" d="M1073.86,-72.76C1078.33,-64.53 1083.87,-54.32 1088.92,-45.02"/>
<polygon fill="black" stroke="black" points="1092.06,-46.58 1093.75,-36.12 1085.9,-43.24 1092.06,-46.58"/>
</g>
</g>
</svg>
